<svg viewBox="300 300 769 555" fill="none" xmlns="http://www.w3.org/2000/svg">
<path d="M932.599 666.556C918.776 626.581 886.406 595.254 845.772 582.88C833.512 579.148 820.495 577.136 807.008 577.136C792.435 577.136 778.405 579.483 765.289 583.815C723.677 597.566 691.171 631.319 679.161 673.692C675.885 685.231 674.137 697.412 674.137 710C674.137 725.078 676.649 739.564 681.273 753.072C694.718 792.32 726.018 823.276 765.481 836.249C778.548 840.538 792.507 842.864 807.008 842.864C820.438 842.864 833.398 840.873 845.615 837.169C888.219 824.246 921.766 790.507 934.419 747.785C937.959 735.811 939.864 723.13 939.864 710C939.864 694.786 937.309 680.172 932.599 666.556ZM829.822 770.056C822.736 772.753 815.043 774.23 807.008 774.23C798.972 774.23 791.151 772.732 784.014 769.992C767.915 763.826 754.941 751.374 748.083 735.639C744.658 727.783 742.759 719.112 742.759 710C742.759 703.235 743.801 696.713 745.75 690.59C751.63 671.994 765.745 657.058 783.822 650.065C791.015 647.282 798.829 645.755 807.008 645.755C815.186 645.755 822.85 647.253 829.986 649.987C846.864 656.452 860.316 669.839 866.874 686.672C869.7 693.901 871.249 701.772 871.249 710C871.249 718.228 869.664 726.291 866.774 733.598C860.152 750.346 846.685 763.655 829.822 770.056Z" fill="#95C4FF"/>
<path d="M845.772 582.88L829.987 649.987C822.85 647.253 815.108 645.755 807.008 645.755C798.908 645.755 791.015 647.282 783.822 650.065C778.734 631.897 770.47 602.368 765.289 583.815C778.406 579.483 792.436 577.136 807.008 577.136C820.496 577.136 833.512 579.148 845.772 582.88Z" fill="#EFAC43"/>
<path d="M845.615 837.169C833.398 840.872 820.438 842.863 807.008 842.863C792.507 842.863 778.548 840.537 765.481 836.248C770.727 817.424 779.005 787.881 784.014 769.991C791.151 772.731 798.908 774.23 807.008 774.23C815.107 774.23 822.736 772.753 829.822 770.055L845.615 837.169Z" fill="#EFAC43"/>
<path d="M939.864 710C939.864 723.13 937.959 735.811 934.419 747.785L866.774 733.599C869.665 726.292 871.249 718.335 871.249 710C871.249 701.665 869.7 693.902 866.874 686.673C885.707 680.9 915.002 671.93 932.6 666.557C937.31 680.172 939.864 694.786 939.864 710Z" fill="#EFAC43"/>
<path d="M748.083 735.639L681.273 753.073C676.649 739.564 674.137 725.078 674.137 710C674.137 697.412 675.885 685.231 679.161 673.692C698.422 678.566 728.109 686.109 745.75 690.59C743.801 696.713 742.759 703.235 742.759 710C742.759 719.113 744.658 727.783 748.083 735.639Z" fill="#EFAC43"/>
<path d="M1053.6 603.9C1065.9 613.2 1071.3 628.8 1071.3 643.5C1071.3 663.6 1061.1 682.5 1044.9 682.5C1042.5 682.5 1040.1 682.2 1037.7 681.3C1036.2 681 1035.3 680.7 1034.1 680.7C1029.3 680.7 1027.2 684.6 1027.2 690.6C1027.2 691.5 1027.5 692.7 1027.5 693.6C1028.7 710.4 1030.2 727.2 1030.2 744.3C1030.2 756 1029.6 767.7 1027.5 780C1023.3 804.6 1010.4 832.8 986.1 832.8C983.7 832.8 981 832.2 978.3 831.6C957.9 826.8 945.9 806.1 941.4 783.6C939.9 776.4 939.6 770.1 939.6 764.1C939.6 738 949.8 719.1 949.8 691.8C949.8 690 949.5 687.9 949.5 685.8C948.9 676.2 944.7 674.1 939 674.1C935.1 674.1 930.3 675.3 926.1 675.3C924.6 675.3 923.1 675 921.6 674.7C909.6 671.7 903 660.6 903 645.9C903 644.7 903.3 643.2 903.3 642C904.8 621 913.8 607.2 931.5 600.3C946.5 594.6 970.2 591.3 993.3 591.3C1018.2 591.3 1042.5 595.2 1053.6 603.9Z" fill="#95C4FF"/>
<path d="M704.2 669.226C704.2 674.926 703.6 680.626 702.4 686.326C694.9 722.026 662.8 753.526 619.3 753.526C613.9 753.526 608.8 753.226 603.4 752.026C605.2 758.026 605.8 764.026 605.8 770.326C605.8 782.926 602.5 795.526 596.2 805.726C588.7 818.026 576.1 829.126 558.4 829.126C544 829.126 534.1 821.326 526.6 811.426C515.2 796.126 511 774.226 511 748.126C511 738.526 511.6 728.626 511.6 719.026C511.6 707.926 511 696.826 511 685.726C511 649.726 519.7 616.126 543.1 602.326C568.3 587.626 613.3 579.826 647.2 589.726C677.8 598.426 704.2 628.426 704.2 669.226ZM602.8 668.926C604.3 670.126 606.1 670.426 607.9 670.426C610.3 670.426 612.4 669.826 614.2 668.326C616 666.826 616.9 664.126 616.9 662.026C616.9 659.626 615.7 657.526 613.9 656.026C612.1 654.526 610.3 653.926 608.5 653.926C603.7 653.926 599.2 658.426 599.2 662.926C599.2 665.026 600.4 667.126 602.8 668.926Z" fill="#95C4FF"/>
<path d="M484.9 664.8C481.9 669.9 477.7 674.1 472.6 677.1C467.5 679.8 461.8 681.3 455.8 681.3C451.3 681.3 446.5 680.4 442 679.2C439.6 678.6 437.5 677.7 435.1 677.4C434.5 677.4 433.9 677.1 433.3 677.1C428.5 677.1 424.6 680.1 424.6 684.9C424.6 690.3 428.8 691.2 433.6 691.2C471.1 691.2 493.9 721.8 493.9 754.2V755.7C492.7 794.1 460.3 820.8 427.6 829.2C418 831.6 407.8 832.8 397.9 832.8C376.9 832.8 355.6 827.4 336.7 817.8C319.6 809.1 300.4 794.7 298.3 772.2C298.3 771 298 769.5 298 768.3C298 747.3 314.5 731.7 331.9 727.5C334.9 726.9 337.9 726.3 340.6 726.3C345.1 726.3 349.6 727.2 353.2 729.3C355.9 730.8 358.3 733.2 361.3 734.7C362.8 735.6 364.6 735.6 366.1 735.6C370 735.6 373.3 733.5 373.3 729.3C373.3 728.7 373 728.1 373 727.5C370 712.8 317.2 707.1 310.6 669.6C309.7 665.1 309.4 660.9 309.4 657C309.4 624.3 333.4 603.9 357.1 594C371.2 588.3 386.2 585.3 401.5 585.3C417.1 585.3 433 588 448 593.1C460 597 471.7 602.7 479.8 612.3C487 620.7 490.9 631.8 490.9 642.9C490.9 650.7 488.8 658.2 484.9 664.8Z" fill="#95C4FF"/>
<path d="M1059.6 358.7V360.8C1059.6 379.4 1045.2 397.4 1025.7 397.4C1024.2 397.4 1022.7 397.4 1021.2 397.1C1017.6 396.5 1013.4 395.6 1009.5 395.6C1007.1 395.6 1004.7 396.2 1002.6 397.4C1000.8 398.6 999.6 400.7 999.6 403.4C999.6 407 1003.5 408.2 1007.4 408.2C1009.2 408.2 1010.7 408.2 1012.5 407.9C1015.2 407.6 1017.9 407.3 1020.9 407.3C1024.5 407.3 1028.1 407.6 1031.7 407.9C1043.7 409.1 1051.2 413.6 1055.7 421.7C1058.1 426.2 1059.3 431 1059.3 435.5C1059.3 462.5 1038.6 463.1 1009.8 463.1C1007.7 463.1 1005.3 463.1 1003.5 463.4C1000.5 464 998.4 465.5 998.4 469.1C998.4 475.7 1003.5 477.5 1008.9 477.5C1011.3 477.5 1013.4 477.2 1015.8 476.9C1018.8 476.3 1022.1 476 1024.8 476C1044.3 476 1057.8 488 1057.8 508.7C1057.8 509.3 1057.5 510.2 1057.5 511.1C1056 544.7 1025.4 557.6 991.2 557.6C983.1 557.6 975 556.7 966.9 555.5C953.4 553.4 939.9 549.2 929.7 540.2C906.3 519.5 903 474.2 903 431C903 424.4 903.3 418.1 903.3 411.8C903.9 378.2 908.1 350.3 928.5 334.1C942.6 322.7 966.3 317.9 990.6 317.9C999 317.9 1007.4 318.5 1015.8 319.7C1025.1 321.2 1034.7 323 1042.5 328.4C1052.4 335 1059 346.7 1059.6 358.7Z" fill="#FFA800"/>
<path d="M885 430.1C883.2 445.4 873.3 455.9 857.4 457.1H854.7C836.4 457.1 819 446.9 821.7 476.6C822.6 487.4 823.5 498.2 823.5 509.6C823.5 534.8 811.2 557.3 786.3 557.3C746.1 557.3 729.3 539.9 729.3 504.2C729.3 480.8 729 452.9 729 429.8C729 423.8 729.3 417.8 729.3 411.8C731.1 351.8 748.8 319.7 809.1 317.9H816.6C849.9 317.9 882.9 323 885.6 353.9V355.7C885.6 374.6 870 387.8 850.8 387.8C849.6 387.8 848.4 387.5 847.2 387.5C838.2 386.6 825.6 383.6 825.6 395C825.6 402.5 843.6 398.9 851.1 398.9C870.6 398.9 885.3 407.9 885.3 427.1C885.3 428 885 429.2 885 430.1Z" fill="#FFA800"/>
<path d="M711.4 487.7C711.4 490.7 711.7 496.1 711.7 502.7C711.7 524.3 707.8 557.3 674.2 557.3C644.8 557.3 639.4 539.3 632.2 506.9C626.2 507.5 620.2 508.1 613.9 508.1C606.7 508.1 599.2 507.5 592.3 506.6C587.2 541.7 583.6 557.3 550 557.3C513.7 557.3 511 518.3 511 497.9V488.3C511 353.6 555.1 318.5 602.2 318.5C662.2 318.5 711.4 346.4 711.4 487.7ZM626.8 430.1C623.8 410.3 617.2 400.1 610.6 400.1C604.3 400.1 598.3 409.7 595.6 429.8C595.6 434.3 601.9 436.1 608.8 436.1C617.2 436.1 626.8 433.1 626.8 430.1Z" fill="#FFA800"/>
<path d="M485.2 393.5C482.2 398.6 478 402.8 472.9 405.8C467.8 408.5 462.1 410 456.1 410C451.6 410 446.8 409.1 442.3 407.9C439.9 407.3 437.8 406.4 435.4 406.1C434.8 406.1 434.2 405.8 433.6 405.8C428.8 405.8 424.9 408.8 424.9 413.6C424.9 419 429.1 419.9 433.9 419.9C471.4 419.9 494.2 450.5 494.2 482.9V484.4C493 522.8 460.6 549.5 427.9 557.9C418.3 560.3 408.1 561.5 398.2 561.5C377.2 561.5 355.9 556.1 337 546.5C319.9 537.8 300.7 523.4 298.6 500.9C298.6 499.7 298.3 498.2 298.3 497C298.3 476 314.8 460.4 332.2 456.2C335.2 455.6 338.2 455 340.9 455C345.4 455 349.9 455.9 353.5 458C356.2 459.5 358.6 461.9 361.6 463.4C363.1 464.3 364.9 464.3 366.4 464.3C370.3 464.3 373.6 462.2 373.6 458C373.6 457.4 373.3 456.8 373.3 456.2C370.3 441.5 317.5 435.8 310.9 398.3C310 393.8 309.7 389.6 309.7 385.7C309.7 353 333.7 332.6 357.4 322.7C371.5 317 386.5 314 401.8 314C417.4 314 433.3 316.7 448.3 321.8C460.3 325.7 472 331.4 480.1 341C487.3 349.4 491.2 360.5 491.2 371.6C491.2 379.4 489.1 386.9 485.2 393.5Z" fill="#FFA800"/>
</svg>
